<?xml version="1.0" encoding="utf-8"?>
<!-- Generator: Adobe Illustrator 16.0.0, SVG Export Plug-In . SVG Version: 6.00 Build 0)  -->
<!DOCTYPE svg PUBLIC "-//W3C//DTD SVG 1.1//EN" "http://www.w3.org/Graphics/SVG/1.1/DTD/svg11.dtd">
<svg version="1.1" id="Layer_1" xmlns="http://www.w3.org/2000/svg" xmlns:xlink="http://www.w3.org/1999/xlink" x="0px" y="0px"
	 width="1024px" height="1024px" viewBox="0 0 1024 1024" enable-background="new 0 0 1024 1024" xml:space="preserve">
<path fill="#005EA1" d="M862.9,137.141l17.693-75.193H600.463l-76.74,320.941c0.869-6.767,1.311-13.725,1.311-20.906
	c0-21.615-4.688-39.676-14.006-54.183c-9.348-14.479-24.327-26.643-44.968-36.491c31.434-12.267,53.181-28.618,65.24-49.023
	c12.031-20.376,18.061-41.651,18.061-63.767c0-19.167-3.449-35.488-10.32-49.022c-6.885-13.505-16.469-24.696-28.75-33.542
	c-12.268-8.847-27.011-15.216-44.217-19.167c-17.19-3.922-36.358-5.897-57.471-5.897c-7.371,0-15.967,0.265-25.801,0.737
	c-9.819,0.501-20.007,1.371-30.579,2.58c-10.557,1.238-21.364,2.712-32.422,4.423c-11.058,1.739-21.497,3.818-31.316,6.266
	L182.979,502.785c9.319,2.949,19.771,5.425,31.331,7.372c11.53,1.976,22.957,3.567,34.279,4.791
	c6.93,0.752,13.623,1.371,20.081,1.844h-107.57l-17.692,75.193h120.162L172.157,973.11h90.674l91.411-381.125h119.144
	l-91.13,381.125h90.673l50.867-211.572c9.82,11.795,19.654,26.17,29.486,43.125c9.822,16.955,19.035,35.016,27.646,54.184
	c8.596,19.167,16.217,38.702,22.852,58.605c6.635,19.905,11.662,38.467,15.113,55.658h95.096
	c-4.422-21.113-10.201-42.624-17.322-64.504c-7.137-21.851-15.246-43.229-24.328-64.135c-9.096-20.877-19.049-40.546-29.855-58.976
	c-10.822-18.43-22.115-35.016-33.91-49.761c19.652-17.19,38.818-35.384,57.5-54.551c18.666-19.167,36.357-38.438,53.076-57.869
	c16.705-19.403,32.186-38.201,46.443-56.395c14.244-18.166,27.025-34.885,38.334-50.129H699.982
	c-8.846,13.269-19.535,28.013-32.066,44.231c-12.533,16.218-25.936,32.805-40.178,49.76c-14.258,16.955-29.119,33.675-44.6,50.129
	c-15.482,16.482-30.844,31.595-46.074,45.337l45.705-189.457h-0.385l46.828-193.88h165.129l17.693-75.193H646.904l27.277-110.578
	H862.9z M360.641,129.769c5.396-0.973,11.663-1.578,18.798-1.843c7.107-0.236,14.611-0.369,22.484-0.369
	c19.167,0,34.146,3.214,44.968,9.583c10.793,6.398,16.218,17.456,16.218,33.173c0,12.797-2.948,23.59-8.846,32.436
	c-5.897,8.847-13.534,15.982-22.853,21.379c-9.347,5.425-19.904,9.214-31.699,11.426c-11.795,2.212-23.854,3.317-36.122,3.317
	h-28.013L360.641,129.769z M307.932,440.124c-8.611-0.472-15.614-1.208-21.01-2.212l30.225-126.058h47.917
	c21.113,0,38.333,3.317,51.603,9.952c13.27,6.635,19.904,19.801,19.904,39.44c0,15.746-3.449,28.75-10.32,39.071
	c-6.9,10.32-15.245,18.43-25.064,24.327c-9.849,5.897-20.405,10.084-31.699,12.533c-11.322,2.476-21.378,3.686-30.225,3.686
	C326.966,440.862,316.513,440.625,307.932,440.124z M491.712,516.792h-148.41c20.847-1.741,40.014-5.059,57.515-9.952
	c27.276-7.608,50.129-18.165,68.56-31.7c18.429-13.505,32.303-29.855,41.65-49.022c2.049-4.232,3.891-8.567,5.485-13.019
	L491.712,516.792z"/>
<path d="M391.86,576.08l-0.24,1h0.76l0.24-1H391.86z"/>
</svg>
