<?xml version="1.0" encoding="utf-8"?>
<!-- Generator: Adobe Illustrator 16.0.0, SVG Export Plug-In . SVG Version: 6.00 Build 0)  -->
<!DOCTYPE svg PUBLIC "-//W3C//DTD SVG 1.1//EN" "http://www.w3.org/Graphics/SVG/1.1/DTD/svg11.dtd">
<svg version="1.1" id="Logo" xmlns="http://www.w3.org/2000/svg" xmlns:xlink="http://www.w3.org/1999/xlink" x="0px" y="0px"
	 width="512px" height="512px" viewBox="0 0 512 512" enable-background="new 0 0 512 512" xml:space="preserve">
<ellipse fill="#7C7C7C" stroke="#000000" stroke-miterlimit="10" cx="255.983" cy="409.085" rx="64.407" ry="15.678"/>
<ellipse fill="#7C7C7C" stroke="#000000" stroke-miterlimit="10" cx="256" cy="428.079" rx="52.966" ry="13.565"/>
<ellipse fill="#7C7C7C" stroke="#000000" stroke-miterlimit="10" cx="256" cy="443.842" rx="36.422" ry="9.328"/>
<path fill="#D86A2C" stroke="#000000" stroke-miterlimit="10" d="M377.9,291.16l29.75,17.18l-30.5,52.82l-29.75-17.18
	c-16.32,16.96-37.311,29.38-60.9,35.21c-9.77,2.409-19.98,3.689-30.5,3.689c-10.52,0-20.73-1.28-30.5-3.689
	c-23.59-5.83-44.58-18.25-60.9-35.21l-29.75,17.18l-30.5-52.82l29.75-17.18c-3.16-11.01-4.88-22.641-4.92-34.66h59.33
	c0,1.08,0.03,2.14,0.09,3.2c0.91,17.29,8.33,32.84,19.85,44.27c1.61,1.601,3.31,3.12,5.08,4.55c0.88,0.711,1.79,1.41,2.71,2.08
	c0.46,0.33,0.92,0.66,1.39,0.99c0.47,0.33,0.94,0.65,1.42,0.96c2.07,1.37,4.22,2.61,6.45,3.74c9.16,4.65,19.52,7.27,30.5,7.27
	c10.98,0,21.34-2.619,30.5-7.27c2.23-1.13,4.38-2.37,6.45-3.74c17.45-11.42,29.28-30.72,30.45-52.85c0.069-1.2,0.1-2.42,0.1-3.64
	c0-1.26-0.03-2.51-0.11-3.75c0-0.06-0.01-0.11-0.01-0.17c-1.26-22.06-13.1-41.27-30.53-52.63c-2.04-1.35-4.159-2.57-6.35-3.67
	c-9.16-4.66-19.52-7.28-30.5-7.28c-0.17,0-0.33,0-0.5,0.01V98.5h31v34.56c23.54,5.82,44.49,18.13,60.78,35.02l0.04-0.02l29.83-17.31
	l30.5,52.74l-29.78,17.01h-0.01l-0.091,0.05l0.091,0.3c0,0.01,0.01,0.02,0.01,0.03c3.22,11.18,4.95,22.96,4.95,35.18
	C382.82,268.24,381.1,280.01,377.9,291.16z"/>
<circle fill="#021863" stroke="#000000" stroke-miterlimit="10" cx="223.655" cy="223.855" r="32"/>
<g>
	<path d="M282.785,180.455c-0.377-1.196-0.813-2.541-1.313-4.035c-0.5-1.494-1.051-3.054-1.655-4.677
		c-0.603-1.623-1.237-3.276-1.901-4.959s-1.333-3.314-2.007-4.895c-0.674-1.58-1.337-3.076-1.99-4.487
		c-0.654-1.41-1.271-2.664-1.85-3.757l-5.435,22.992l-4.038-0.955l6.962-29.452l3.272,0.774c0.996,1.732,2.03,3.718,3.101,5.96
		c1.07,2.243,2.113,4.538,3.129,6.888c1.016,2.349,1.954,4.642,2.816,6.88c0.862,2.239,1.568,4.216,2.121,5.931l5.153-21.803
		l4.038,0.954l-6.962,29.453L282.785,180.455z"/>
	<path d="M308.998,167.688c1.394,0.844,2.461,1.738,3.201,2.679c0.74,0.942,1.203,1.92,1.389,2.935
		c0.185,1.014,0.127,2.051-0.174,3.111c-0.303,1.06-0.784,2.137-1.448,3.232l-7.353,12.14c-0.329-0.131-0.787-0.314-1.375-0.552
		c-0.59-0.238-1.241-0.522-1.959-0.854c-0.719-0.333-1.488-0.706-2.311-1.118c-0.821-0.414-1.619-0.853-2.391-1.32
		c-1.097-0.664-2.037-1.388-2.822-2.169c-0.786-0.783-1.367-1.62-1.746-2.513c-0.378-0.892-0.513-1.85-0.404-2.874
		c0.109-1.022,0.504-2.095,1.183-3.216c0.647-1.07,1.425-1.859,2.328-2.368c0.902-0.508,1.872-0.772,2.905-0.793
		c1.033-0.02,2.116,0.159,3.248,0.538c1.131,0.378,2.246,0.9,3.342,1.564c0.348,0.211,0.698,0.448,1.049,0.711
		c0.351,0.263,0.676,0.528,0.975,0.794c0.298,0.266,0.557,0.5,0.776,0.701c0.218,0.201,0.369,0.343,0.454,0.429l0.589-0.972
		c0.347-0.572,0.628-1.177,0.843-1.812c0.214-0.636,0.291-1.27,0.232-1.902c-0.061-0.632-0.291-1.249-0.693-1.849
		c-0.401-0.601-1.051-1.173-1.947-1.717c-1.146-0.693-2.197-1.218-3.153-1.577c-0.958-0.358-1.701-0.579-2.229-0.661l1.331-3.126
		c0.569,0.073,1.433,0.333,2.592,0.78C306.587,166.355,307.777,166.949,308.998,167.688z M298.754,185.276
		c0.821,0.498,1.561,0.92,2.219,1.268c0.658,0.347,1.228,0.599,1.712,0.756l3.507-5.79c-0.174-0.275-0.515-0.626-1.021-1.052
		c-0.508-0.427-1.16-0.881-1.957-1.363c-0.522-0.317-1.1-0.616-1.729-0.895c-0.631-0.28-1.261-0.449-1.89-0.507
		c-0.629-0.057-1.229,0.021-1.802,0.236c-0.573,0.215-1.063,0.658-1.47,1.331c-0.755,1.245-0.881,2.352-0.377,3.321
		C296.447,183.547,297.384,184.446,298.754,185.276z"/>
	<path d="M339.343,178.722c0.683,0.757,1.218,1.45,1.608,2.078c0.39,0.628,0.648,1.101,0.777,1.416l-2.977,1.917
		c-0.128-0.316-0.328-0.723-0.601-1.222c-0.273-0.499-0.673-1.04-1.199-1.624c-1.268-1.405-2.538-2.044-3.813-1.915
		c-1.274,0.13-2.561,0.78-3.857,1.95l-1.46,1.315l5.848,6.488l-2.53,2.28l-5.848-6.487l-14.338,12.923l-2.72-3.017l18.393-16.578
		c2.163-1.95,4.311-2.925,6.445-2.929C335.205,175.317,337.296,176.451,339.343,178.722z M322.357,210.494l-2.719-3.017
		l16.867-15.204l2.72,3.017L322.357,210.494z M340.9,191.017c-0.487-0.541-0.723-1.161-0.707-1.861
		c0.016-0.7,0.326-1.323,0.932-1.869c0.604-0.546,1.257-0.791,1.955-0.733c0.697,0.056,1.29,0.356,1.778,0.896
		c0.487,0.54,0.723,1.161,0.706,1.86c-0.015,0.7-0.326,1.323-0.932,1.869s-1.258,0.789-1.955,0.734
		C341.98,191.855,341.387,191.557,340.9,191.017z"/>
	<path d="M348.802,236.454l1.185,4.067l-13.585,3.957c-0.21-0.303-0.476-0.749-0.798-1.337c-0.324-0.588-0.675-1.274-1.055-2.058
		c-0.38-0.784-0.762-1.651-1.145-2.602s-0.721-1.928-1.014-2.935c-0.594-2.04-0.8-3.997-0.617-5.869
		c0.182-1.873,0.741-3.598,1.677-5.174c0.936-1.577,2.244-2.966,3.927-4.168c1.681-1.202,3.738-2.157,6.17-2.865
		c2.432-0.708,4.699-0.967,6.802-0.775c2.102,0.191,3.979,0.728,5.632,1.611c1.651,0.884,3.06,2.073,4.223,3.568
		c1.164,1.497,2.026,3.209,2.588,5.137c0.383,1.314,0.639,2.505,0.768,3.575c0.13,1.068,0.188,2,0.178,2.791
		c-0.014,0.792-0.063,1.452-0.152,1.978c-0.09,0.526-0.166,0.89-0.229,1.09l-3.775-0.312c0.295-0.965,0.422-2.169,0.381-3.613
		c-0.042-1.443-0.266-2.865-0.673-4.261c-0.431-1.482-1.091-2.754-1.975-3.815c-0.886-1.062-1.955-1.871-3.21-2.43
		c-1.255-0.561-2.671-0.868-4.249-0.924c-1.578-0.056-3.262,0.177-5.05,0.697c-1.734,0.505-3.254,1.167-4.562,1.988
		c-1.308,0.82-2.352,1.791-3.132,2.913c-0.78,1.123-1.272,2.372-1.478,3.75c-0.205,1.379-0.067,2.893,0.413,4.542
		c0.343,1.173,0.695,2.154,1.063,2.944c0.365,0.787,0.657,1.347,0.875,1.678L348.802,236.454z"/>
	<path d="M335.898,267.05c-0.204-0.94-0.412-2.176-0.626-3.713c-0.213-1.535-0.288-3.307-0.226-5.315
		c0.056-1.746,0.357-3.207,0.903-4.385c0.547-1.177,1.297-2.115,2.252-2.813c0.954-0.698,2.069-1.187,3.345-1.467
		c1.276-0.28,2.686-0.396,4.228-0.347l12.745,0.403l-0.128,4.059l-11.872-0.375c-2.765-0.087-4.758,0.287-5.978,1.122
		c-1.222,0.835-1.864,2.287-1.929,4.353c-0.015,0.436-0.015,0.888,0,1.354s0.037,0.904,0.068,1.313
		c0.031,0.407,0.063,0.78,0.096,1.116c0.033,0.337,0.076,0.578,0.13,0.727l19.162,0.604l-0.128,4.059L335.898,267.05z
		 M362.29,262.857c0.021-0.669,0.279-1.25,0.776-1.744c0.496-0.494,1.121-0.729,1.879-0.705c0.756,0.023,1.367,0.298,1.831,0.822
		s0.686,1.12,0.664,1.791c-0.021,0.669-0.28,1.25-0.775,1.745c-0.497,0.492-1.124,0.729-1.879,0.705
		c-0.757-0.023-1.367-0.3-1.831-0.822C362.49,264.125,362.27,263.527,362.29,262.857z M362.552,254.565
		c0.021-0.671,0.28-1.251,0.776-1.746c0.496-0.494,1.122-0.729,1.879-0.705c0.756,0.024,1.367,0.299,1.832,0.823
		c0.463,0.524,0.685,1.12,0.663,1.79c-0.021,0.67-0.279,1.25-0.775,1.746c-0.496,0.493-1.123,0.729-1.88,0.706
		c-0.756-0.024-1.366-0.299-1.83-0.823C362.752,255.831,362.531,255.234,362.552,254.565z"/>
	<path d="M353.987,286.491c-0.095,0.336-0.225,0.716-0.39,1.138c-0.164,0.422-0.342,0.834-0.529,1.234
		c-0.189,0.399-0.368,0.765-0.537,1.096s-0.305,0.572-0.408,0.726l-3.215-1.635c0.199-0.277,0.477-0.75,0.832-1.421
		c0.356-0.67,0.692-1.567,1.009-2.687c0.206-0.729,0.332-1.474,0.38-2.23c0.047-0.759,0.075-1.257,0.082-1.498l-18.366-5.185
		l1.104-3.908l20.931,5.908c0.074,1.02,0.065,2.257-0.027,3.714C354.758,283.198,354.47,284.781,353.987,286.491z"/>
	<path d="M346.417,304.315c-0.785,1.429-1.634,2.532-2.544,3.311c-0.91,0.779-1.868,1.281-2.873,1.51
		c-1.006,0.228-2.045,0.213-3.117-0.044c-1.071-0.258-2.168-0.694-3.291-1.312l-12.436-6.841c0.117-0.333,0.281-0.8,0.494-1.397
		s0.47-1.262,0.772-1.992c0.303-0.731,0.643-1.516,1.021-2.354c0.379-0.838,0.785-1.653,1.22-2.444
		c0.618-1.123,1.301-2.093,2.05-2.909c0.748-0.818,1.561-1.435,2.438-1.85c0.876-0.416,1.827-0.59,2.854-0.523
		c1.026,0.066,2.114,0.415,3.262,1.047c1.097,0.603,1.918,1.346,2.464,2.228c0.545,0.88,0.85,1.837,0.913,2.869
		s-0.07,2.122-0.401,3.268c-0.332,1.147-0.806,2.281-1.424,3.404c-0.196,0.357-0.419,0.716-0.667,1.078
		c-0.249,0.362-0.501,0.696-0.754,1.007c-0.253,0.309-0.475,0.577-0.667,0.805c-0.191,0.226-0.328,0.383-0.409,0.472l0.995,0.548
		c0.587,0.322,1.203,0.578,1.846,0.766c0.646,0.188,1.281,0.239,1.91,0.152c0.628-0.086,1.235-0.342,1.818-0.769
		c0.584-0.427,1.128-1.1,1.634-2.018c0.646-1.173,1.126-2.246,1.445-3.217c0.317-0.971,0.507-1.723,0.566-2.255l3.179,1.199
		c-0.049,0.571-0.271,1.445-0.67,2.623C347.646,301.852,347.104,303.065,346.417,304.315z M328.416,294.813
		c-0.463,0.843-0.854,1.599-1.174,2.27c-0.318,0.672-0.547,1.253-0.684,1.742l5.932,3.263c0.268-0.186,0.604-0.54,1.009-1.065
		c0.405-0.524,0.832-1.195,1.281-2.011c0.294-0.535,0.568-1.125,0.821-1.767c0.254-0.641,0.396-1.278,0.427-1.908
		s-0.071-1.229-0.311-1.79c-0.238-0.563-0.702-1.035-1.392-1.413c-1.275-0.702-2.386-0.782-3.333-0.239
		C330.048,292.438,329.188,293.411,328.416,294.813z"/>
	<path d="M313.618,309.714c1.661-1.876,3.218-2.886,4.673-3.026c1.455-0.144,3.005,0.479,4.65,1.87l20.815,17.59l-2.088,3.553
		l-20.848-17.617c-0.513-0.433-0.972-0.745-1.381-0.938c-0.409-0.194-0.798-0.274-1.167-0.243s-0.744,0.172-1.127,0.42
		c-0.382,0.249-0.813,0.59-1.293,1.022L313.618,309.714z"/>
	<path d="M304.35,319.006l15.813,25.805l-15.565,9.538l-1.894-3.091l11.952-7.325l-4.769-7.782l-10.612,6.503l-1.871-3.053
		l10.612-6.503l-7.278-11.879L304.35,319.006z"/>
	<path d="M290.836,339.837c0.561,1.93,0.771,3.694,0.631,5.297c-0.14,1.603-0.533,3.013-1.179,4.232
		c-0.647,1.218-1.501,2.24-2.565,3.066c-1.063,0.823-2.225,1.419-3.482,1.786c-2.936,0.853-5.452,0.591-7.551-0.783
		c-2.098-1.376-3.691-3.938-4.781-7.684c-0.049-0.168-0.111-0.384-0.189-0.648c-0.077-0.267-0.134-0.516-0.172-0.747l14.93-4.342
		c-0.827-2.217-1.983-3.744-3.472-4.585c-1.487-0.841-3.448-0.907-5.88-0.199c-1.369,0.397-2.488,0.851-3.355,1.361
		c-0.867,0.51-1.506,0.946-1.917,1.308l-1.496-3.111c0.402-0.39,1.156-0.897,2.263-1.523c1.107-0.623,2.416-1.157,3.926-1.595
		c1.9-0.555,3.626-0.745,5.177-0.574c1.55,0.17,2.92,0.629,4.106,1.375c1.188,0.747,2.199,1.748,3.035,3.006
		S290.356,338.188,290.836,339.837z M276.488,346.33c0.484,1.77,1.346,3.089,2.582,3.957c1.239,0.867,2.654,1.069,4.248,0.605
		c0.895-0.26,1.634-0.664,2.217-1.213c0.584-0.549,1.031-1.172,1.344-1.869c0.313-0.698,0.496-1.448,0.551-2.252
		c0.054-0.805,0.013-1.596-0.123-2.375L276.488,346.33z"/>
	<path d="M264.813,357.023c-0.931,0.235-2.168,0.484-3.711,0.748c-1.542,0.264-3.318,0.397-5.327,0.4
		c-1.805,0.003-3.305-0.25-4.499-0.757c-1.194-0.509-2.148-1.221-2.864-2.136c-0.714-0.917-1.218-2.016-1.511-3.296
		c-0.292-1.28-0.44-2.693-0.442-4.235l-0.019-12.752l4.062-0.005l0.017,11.877c0.002,1.397,0.099,2.591,0.289,3.581
		c0.191,0.99,0.505,1.79,0.942,2.401c0.438,0.609,1.021,1.054,1.749,1.329c0.729,0.274,1.631,0.412,2.708,0.411
		c0.437-0.001,0.889-0.017,1.354-0.046c0.465-0.029,0.909-0.066,1.331-0.111c0.423-0.044,0.801-0.095,1.136-0.153
		c0.334-0.06,0.574-0.104,0.721-0.133l-0.028-19.172l4.062-0.006L264.813,357.023z"/>
	<path d="M214.21,328.384l1.391-3.394l16.85,6.909L220.97,359.9l-3.919-1.606l10.089-24.608L214.21,328.384z"/>
	<path d="M197.109,344.258c0.608,0.401,0.993,0.941,1.154,1.622c0.161,0.682,0.019,1.362-0.43,2.044
		c-0.447,0.68-1.017,1.082-1.706,1.203c-0.689,0.122-1.339-0.018-1.946-0.417c-0.608-0.4-0.993-0.94-1.155-1.623
		c-0.161-0.681-0.018-1.363,0.43-2.043c0.448-0.682,1.017-1.083,1.707-1.204C195.853,343.719,196.501,343.858,197.109,344.258z
		 M210.13,320.728l3.393,2.232l-12.48,18.972l-3.393-2.231L210.13,320.728z"/>
	<path d="M199.58,315.976c-1.206-1.14-2.25-1.826-3.131-2.06c-0.882-0.232-1.653,0.001-2.313,0.699
		c-0.68,0.719-0.934,1.56-0.763,2.523c0.171,0.963,0.663,2.328,1.475,4.098c0.395,0.854,0.758,1.688,1.09,2.503
		c0.332,0.814,0.54,1.601,0.623,2.362c0.083,0.759,0.011,1.512-0.214,2.26c-0.226,0.747-0.689,1.492-1.39,2.232
		c-1.38,1.459-3.014,2.108-4.903,1.945c-1.889-0.163-3.764-1.124-5.626-2.885c-0.465-0.439-0.906-0.906-1.321-1.399
		c-0.415-0.492-0.789-0.966-1.121-1.42c-0.332-0.454-0.611-0.869-0.839-1.242c-0.226-0.375-0.394-0.675-0.504-0.898l2.939-2.029
		c0.157,0.469,0.49,1.114,0.996,1.934c0.509,0.82,1.237,1.68,2.189,2.581c0.825,0.779,1.7,1.296,2.623,1.547
		c0.924,0.253,1.715,0.029,2.376-0.668c0.34-0.36,0.571-0.743,0.693-1.148c0.122-0.404,0.146-0.854,0.07-1.345
		c-0.076-0.493-0.235-1.033-0.478-1.625c-0.243-0.589-0.561-1.271-0.953-2.042c-0.502-1.036-0.926-1.986-1.27-2.853
		c-0.343-0.866-0.552-1.694-0.626-2.485c-0.073-0.791,0.029-1.565,0.306-2.325c0.277-0.76,0.786-1.531,1.526-2.313
		c1.44-1.524,3.097-2.142,4.968-1.854c1.873,0.287,3.855,1.42,5.951,3.4c1.459,1.379,2.486,2.581,3.082,3.604
		c0.595,1.022,0.981,1.738,1.157,2.146l-2.939,2.028c-0.218-0.446-0.578-1.147-1.079-2.101
		C201.67,318.192,200.807,317.135,199.58,315.976z"/>
	<path d="M183.901,312.158c-1.705,1.064-3.345,1.746-4.926,2.047c-1.58,0.301-3.044,0.307-4.393,0.017
		c-1.349-0.291-2.564-0.835-3.648-1.635c-1.083-0.799-1.972-1.755-2.666-2.865c-1.62-2.593-2.053-5.085-1.301-7.479
		c0.754-2.393,2.784-4.623,6.092-6.69c0.148-0.092,0.34-0.212,0.574-0.358c0.236-0.147,0.459-0.27,0.672-0.368l8.239,13.185
		c1.907-1.398,3.063-2.926,3.467-4.587c0.405-1.659-0.064-3.564-1.407-5.713c-0.756-1.21-1.497-2.162-2.224-2.858
		s-1.32-1.192-1.78-1.488l2.588-2.287c0.484,0.281,1.179,0.869,2.081,1.764c0.902,0.896,1.77,2.009,2.604,3.344
		c1.049,1.678,1.702,3.287,1.959,4.825c0.258,1.538,0.189,2.98-0.207,4.325c-0.394,1.347-1.084,2.592-2.067,3.738
		C186.577,310.219,185.357,311.248,183.901,312.158z M173.75,300.117c-1.57,0.947-2.605,2.134-3.104,3.561
		c-0.498,1.428-0.309,2.846,0.571,4.252c0.494,0.79,1.084,1.392,1.771,1.803c0.688,0.413,1.408,0.675,2.164,0.786
		c0.757,0.111,1.528,0.084,2.317-0.083s1.539-0.422,2.252-0.765L173.75,300.117z"/>
	<path d="M177.354,281.339c-0.497-1.583-1.074-2.692-1.73-3.324c-0.656-0.634-1.443-0.807-2.359-0.521
		c-0.944,0.297-1.576,0.908-1.897,1.832c-0.32,0.925-0.558,2.356-0.711,4.297c-0.072,0.938-0.161,1.845-0.27,2.716
		c-0.106,0.874-0.31,1.661-0.608,2.364c-0.297,0.705-0.728,1.329-1.29,1.87c-0.562,0.543-1.329,0.966-2.301,1.272
		c-1.917,0.601-3.66,0.37-5.23-0.694c-1.569-1.063-2.738-2.816-3.505-5.263c-0.192-0.609-0.348-1.231-0.471-1.865
		c-0.122-0.633-0.217-1.229-0.286-1.786c-0.068-0.559-0.11-1.057-0.126-1.495c-0.015-0.437-0.016-0.779-0.002-1.029l3.556-0.337
		c-0.091,0.486-0.116,1.212-0.073,2.174c0.043,0.963,0.26,2.07,0.653,3.319c0.34,1.084,0.852,1.96,1.535,2.632
		c0.684,0.671,1.483,0.861,2.4,0.574c0.473-0.148,0.861-0.369,1.166-0.664c0.304-0.294,0.543-0.675,0.717-1.14
		c0.174-0.468,0.299-1.018,0.375-1.65c0.076-0.635,0.131-1.385,0.164-2.25c0.066-1.148,0.16-2.186,0.282-3.108
		c0.123-0.923,0.345-1.748,0.666-2.476c0.321-0.727,0.788-1.354,1.4-1.881s1.434-0.954,2.461-1.275c2-0.628,3.748-0.359,5.241,0.804
		c1.494,1.163,2.672,3.12,3.535,5.871c0.602,1.916,0.912,3.467,0.933,4.65c0.021,1.183,0.009,1.997-0.036,2.438l-3.556,0.337
		c0.028-0.496,0.055-1.283,0.083-2.36C178.099,284.294,177.859,282.949,177.354,281.339z"/>
	<path d="M150.266,269.368c0.094,0.723-0.064,1.368-0.476,1.934c-0.411,0.567-1.021,0.903-1.829,1.008
		c-0.808,0.105-1.483-0.064-2.025-0.508s-0.859-1.026-0.954-1.748c-0.093-0.722,0.065-1.366,0.476-1.934
		c0.412-0.566,1.022-0.902,1.829-1.007c0.81-0.105,1.484,0.064,2.025,0.508C149.855,268.065,150.172,268.647,150.266,269.368z
		 M176.594,263.89l0.521,4.027l-22.521,2.917l-0.521-4.028L176.594,263.89z"/>
</g>
<g>
	<path d="M250.997,188.873c1.74,0.108,2.332,0.121,4.052,0.242c-0.021-0.335,1.138-0.576,1.175-0.909
		c-9.729-0.687-19.708-1.154-29.84-1.385c-4.826-0.11-9.697-0.166-14.479-0.166c-81.813,0-143.864,15.658-144.337,36.421
		c-0.245,10.763,15.756,21.606,45.56,29.783c5.135,1.409,10.363,2.893,16.055,4.109c-0.024-0.331,0.41-0.451,0.442-0.781
		c-37.387-7.96-61.344-20.51-61.057-33.088c0.453-19.875,63.414-35.444,143.337-35.444c4.774,0,9.638,0.056,14.457,0.166
		c7.641,0.174,15.15,0.483,22.495,0.914"/>
</g>
<g>
	<path d="M189.015,256c-0.331-10.935-0.033-20.812,0.24-32.253c2.052-86.008,21.057-155.981,42.367-155.981l0.227,0.003
		c9.484,0.227,17.271,9.487,23.478,32.53c0.023-0.194,0.394-0.375,0.435-0.569c-0.001-0.824,0.204-0.449,0.239-1.272
		c-6.491-22.609-14.88-31.468-24.127-31.689l-0.251-0.003c-10.712,0-21.102,16.381-29.254,46.125
		c-8.101,29.557-13.113,68.918-14.113,110.833c-0.273,11.456-0.513,22.73-0.182,33.681C188.407,257.396,188.682,256.004,189.015,256
		z"/>
</g>
<g>
	<path d="M116.497,116.953c2.612-2.613,6.494-3.938,11.536-3.938c24.559,0,72.535,30.389,119.726,75.495
		c0.384-0.105,1.05-0.059,1.5-0.073c-47.548-45.564-96.338-76.422-121.226-76.422c-5.317,0-9.436,1.423-12.243,4.23
		c-8.273,8.272-4.335,27.681,11.088,54.65c14.008,24.494,35.408,52.311,61.82,79.704c-0.008-0.194,0.153-0.067,0.165-0.261
		c-0.015-0.273-0.024-0.662,0-0.935c-26.048-27.108-47.27-54.792-61.116-79.004C112.567,143.858,108.572,124.877,116.497,116.953z"
		/>
</g>
</svg>
